Coordinates
version=1
nRows=10
nColumns=46
inDegrees=yes

Units are S.I. units (second, meters, Newtons, ...)
Angles are in degrees.

endheader
time	pelvis_tilt	pelvis_list	pelvis_rotation	pelvis_tx	pelvis_ty	pelvis_tz	bb_angle	bb_tx	bb_ty	bb_tz	hip_flexion_r	hip_adduction_r	hip_rotation_r	knee_angle_r	knee_angle_r_beta	ankle_angle_r	subtalar_angle_r	mtp_angle_r	crank_angle_r	hip_flexion_l	hip_adduction_l	hip_rotation_l	knee_angle_l	knee_angle_l_beta	ankle_angle_l	subtalar_angle_l	mtp_angle_l	crank_angle_l	lumbar_extension	lumbar_bending	lumbar_rotation	arm_flex_r	arm_add_r	arm_rot_r	elbow_flex_r	pro_sup_r	wrist_flex_r	wrist_dev_r	arm_flex_l	arm_add_l	arm_rot_l	elbow_flex_l	pro_sup_l	wrist_flex_l	wrist_dev_l
      5.00000000	    -14.10470521	      7.69092622	      4.01962432	      0.18005864	      1.05933371	     -0.31031270	      0.00000000	      0.50000000	      0.00000000	      0.25000000	     44.03567998	    -15.23190517	     -2.17940304	     38.83449827	      0.67778986	    -26.18542544	     -2.80938693	      0.00000000	      0.00000000	     92.95910185	     -3.40702120	     -0.31094083	    114.28615445	      1.99466968	     -1.86511702	     -0.10565965	      0.00000000	      0.00000000	    -65.74798674	     -5.24897878	     -6.57831626	     89.32061097	    -16.49752838	     33.13140353	     45.66878116	     28.93462070	      0.00000000	      0.00000000	     89.51326067	     -8.52108496	     30.14446767	     52.68109902	     37.97398703	      0.00000000	      0.00000000
      5.00500000	    -14.06550790	      7.90596341	      4.01432355	      0.17950489	      1.06000531	     -0.30974826	      0.00000000	      0.50000000	      0.00000000	      0.25000000	     44.24408737	    -15.45888987	     -2.11868499	     40.27743769	      0.70297390	    -26.31970554	     -3.48520465	      0.00000000	      0.00000000	     93.05060890	     -3.55239057	     -0.65397745	    113.20339570	      1.97577198	     -1.52673975	      0.18594017	      0.00000000	      0.00000000	    -65.92845340	     -5.53745351	     -6.58900712	     89.33616837	    -16.90480695	     33.16942295	     45.68853450	     28.96075067	      0.00000000	      0.00000000	     89.52358347	     -8.08186707	     29.90951706	     52.81949491	     37.89363398	      0.00000000	      0.00000000
      5.01000000	    -13.97434063	      8.01650183	      4.01099276	      0.17887851	      1.06081355	     -0.30925818	      0.00000000	      0.50000000	      0.00000000	      0.25000000	     44.43268551	    -15.59784213	     -2.01181924	     41.78253324	      0.72924277	    -26.48499345	     -4.03845298	      0.00000000	      0.00000000	     92.92770084	     -3.68309541	     -0.93513601	    111.98488223	      1.95450491	     -0.98596176	      0.41773338	      0.00000000	      0.00000000	    -66.16117210	     -5.70584114	     -6.49773034	     89.37141903	    -17.21362674	     33.17672043	     45.72998995	     28.98389773	      0.00000000	      0.00000000	     89.53795322	     -7.77521696	     29.69251552	     52.92130143	     37.83521209	      0.00000000	      0.00000000
      5.01500000	    -13.93763018	      8.37193328	      3.93503858	      0.17817379	      1.06144729	     -0.30862337	      0.00000000	      0.50000000	      0.00000000	      0.25000000	     44.94523313	    -15.87697974	     -1.76929970	     43.63551422	      0.76158339	    -26.58664317	     -5.36397614	      0.00000000	      0.00000000	     92.55787514	     -3.85796289	     -1.45341108	    110.60702396	      1.93045674	     -0.00074436	      1.01911226	      0.00000000	      0.00000000	    -66.41080239	     -6.27372782	     -6.20945240	     89.32161681	    -18.99776232	     34.10784709	     46.83341819	     29.74831745	      0.00000000	      0.00000000	     89.53749891	     -5.78094335	     27.43738933	     52.48461925	     36.77307445	      0.00000000	      0.00000000
      5.02000000	    -13.86666360	      8.40911269	      3.82681102	      0.17747543	      1.06200271	     -0.30801027	      0.00000000	      0.50000000	      0.00000000	      0.25000000	     45.40513386	    -15.83168755	     -1.54222410	     45.51639894	      0.79441103	    -26.66057066	     -6.44483724	      0.00000000	      0.00000000	     92.06875571	     -4.09209718	     -1.65868376	    109.14056344	      1.90486218	      1.08057440	      1.61591034	      0.00000000	      0.00000000	    -66.62896148	     -6.51516519	     -6.01305594	     89.31459855	    -19.25251425	     33.28983101	     46.96074372	     30.58843925	      0.00000000	      0.00000000	     89.54523667	     -5.33605149	     26.98189500	     52.68856616	     36.84410859	      0.00000000	      0.00000000
      5.02500000	    -13.66167846	      8.54383569	      3.68109677	      0.17677702	      1.06290699	     -0.30723965	      0.00000000	      0.50000000	      0.00000000	      0.25000000	     45.78159236	    -15.82910072	     -1.21663977	     47.43385364	      0.82787692	    -26.77145064	     -7.55156438	      0.00000000	      0.00000000	     91.19476847	     -4.32543427	     -1.98759688	    107.46432051	      1.87560622	      2.35071465	      2.30322324	      0.00000000	      0.00000000	    -67.12423727	     -6.83714407	     -5.87568090	     89.29001293	    -19.62463630	     31.92625047	     47.66548427	     31.71404169	      0.00000000	      0.00000000	     89.54140356	     -4.78877630	     26.21066453	     53.41303409	     37.31669823	      0.00000000	      0.00000000
      5.03000000	    -13.55822944	      8.41074720	      3.43657144	      0.17597403	      1.06307564	     -0.30645273	      0.00000000	      0.50000000	      0.00000000	      0.25000000	     46.39462162	    -15.48487336	     -0.76862925	     49.62670051	      0.86614932	    -26.53484978	     -8.20594003	      0.00000000	      0.00000000	     90.43197879	     -4.65296103	     -2.05690605	    105.77815255	      1.84617704	      3.61924854	      2.85492491	      0.00000000	      0.00000000	    -67.17932087	     -7.08397619	     -5.53632552	     89.33288904	    -19.88679894	     32.68271728	     47.16709520	     31.64646763	      0.00000000	      0.00000000	     89.55102109	     -4.37790616	     25.92542185	     52.96635051	     36.86437281	      0.00000000	      0.00000000
      5.03500000	    -13.44515348	      8.55248136	      3.26010564	      0.17543744	      1.06348489	     -0.30586940	      0.00000000	      0.50000000	      0.00000000	      0.25000000	     47.06043237	    -15.42294934	     -0.21146843	     51.87639892	      0.90541397	    -26.25792815	     -9.17600007	      0.00000000	      0.00000000	     89.37280607	     -4.79025498	     -2.43489233	    103.88223848	      1.81308710	      4.92156087	      3.25633051	      0.00000000	      0.00000000	    -67.43070838	     -7.43598492	     -5.45768248	     89.35162516	    -20.24505106	     32.66404388	     47.23300296	     31.63288298	      0.00000000	      0.00000000	     89.55028218	     -3.93316325	     25.65293491	     53.03339252	     36.66160201	      0.00000000	      0.00000000
      5.04000000	    -13.40410938	      8.20316093	      3.23774671	      0.17461506	      1.06369056	     -0.30535073	      0.00000000	      0.50000000	      0.00000000	      0.25000000	     47.67532792	    -14.99450751	      0.09695647	     54.04495442	      0.94326240	    -26.02514878	     -9.74408671	      0.00000000	      0.00000000	     88.38788474	     -4.97549406	     -2.50531848	    101.82978300	      1.77726499	      6.00790767	      3.23471529	      0.00000000	      0.00000000	    -67.50837981	     -7.28730267	     -5.00310570	     89.38547172	    -20.30023209	     32.61460929	     47.28663092	     31.63069187	      0.00000000	      0.00000000	     89.53871210	     -3.79904176	     25.50733024	     53.11001650	     36.60603075	      0.00000000	      0.00000000
      5.04500000	    -13.27899369	      8.19043498	      2.91894105	      0.17433836	      1.06379763	     -0.30439489	      0.00000000	      0.50000000	      0.00000000	      0.25000000	     48.41886723	    -14.61546828	      0.76183111	     56.43981761	      0.98506065	    -25.65966994	    -10.76380850	      0.00000000	      0.00000000	     87.08098193	     -5.22572397	     -2.73465863	     99.74541134	      1.74088584	      7.47038004	      3.73272526	      0.00000000	      0.00000000	    -67.75936684	     -7.72553728	     -4.52657716	     89.33040386	    -21.11836775	     31.84871730	     48.19606851	     31.66386366	      0.00000000	      0.00000000	     89.53945794	     -2.55400788	     24.11784407	     52.98674224	     35.85911079	      0.00000000	      0.00000000
